<svg width="193" height="174" viewBox="0 0 193 174" fill="none" xmlns="http://www.w3.org/2000/svg">
<path d="M3.34937 99.1025C-1.11646 91.3675 -1.11646 81.8376 3.34937 74.1025L38.9156 12.5C43.3814 4.76497 51.6346 0 60.5662 0H131.699C140.63 0 148.884 4.76497 153.349 12.5L179.227 57.3219C173.776 57.6049 166.635 58.0551 157.402 58.6869C138.071 60.0094 119.64 61.2363 116.446 61.4117L110.636 61.7316L109.356 58.0032C107.325 52.0891 105.285 49.6612 100.322 47.2534C94.4557 44.4069 84.4084 43.7591 77.2726 45.7674C69.393 47.9839 62.8688 51.6595 58.7988 56.1753C55.6854 59.6287 55.1325 60.9383 55.1325 64.8561C55.1325 72.594 60.0279 78.1902 71.0428 83.0458C87.4572 90.2814 104.725 86.4394 108.996 74.6022C110.194 71.2834 110.359 71.1997 115.742 71.2166C118.777 71.2256 134.013 71.8914 149.6 72.6947C165.187 73.498 181.89 74.1637 186.717 74.1727C187.535 74.1743 188.278 74.1744 188.955 74.1709C193.381 81.8937 193.368 91.3903 188.916 99.1025L153.349 160.705C148.884 168.44 140.63 173.205 131.699 173.205H60.5662C51.6346 173.205 43.3814 168.44 38.9156 160.705L18.0682 124.596C19.0441 124.482 20.0505 124.364 21.0885 124.242C35.8814 122.502 53.9341 121.201 68.5207 120.827L92.0686 120.221L94.4419 124.235C98.1273 130.47 101.413 131.28 118.658 130.2C126.763 129.692 136.549 129.145 140.405 128.983C144.74 128.8 147.582 128.178 147.855 127.352C148.19 126.34 143.743 125.944 129.474 125.717C115.804 125.501 110.528 125.053 110.205 124.083C109.868 123.07 114.312 122.675 128.583 122.448C142.253 122.232 147.529 121.784 147.852 120.814C148.189 119.801 143.745 119.406 129.474 119.18C115.604 118.959 110.531 118.523 110.197 117.519C109.845 116.464 114.068 116.157 128.938 116.157C145.136 116.157 148.132 115.905 148.132 114.549C148.132 113.204 145.054 112.89 129.391 112.642C115.587 112.422 110.531 111.985 110.197 110.981C109.845 109.926 114.068 109.619 128.938 109.619C144.706 109.619 148.132 109.346 148.132 108.086C148.132 106.924 145.687 106.401 138.035 105.926C118.11 104.688 102.801 104.259 101.192 104.893C98.4624 105.968 94.4714 110.006 93.4005 112.776L92.3896 115.389L70.8644 114.639C59.0244 114.226 38.4567 112.665 25.1571 111.167C19.7892 110.564 14.2806 109.987 9.35571 109.506L3.34937 99.1025Z" fill="#FF8300"/>
<g style="mix-blend-mode:multiply">
<path d="M3.34937 99.1025C-1.11646 91.3675 -1.11646 81.8376 3.34937 74.1025L38.9156 12.5C43.3814 4.76497 51.6346 0 60.5662 0H131.699C140.63 0 148.884 4.76497 153.349 12.5L179.227 57.3219C173.776 57.6049 166.635 58.0551 157.402 58.6869C138.071 60.0094 119.64 61.2363 116.446 61.4117L110.636 61.7316L109.356 58.0032C107.325 52.0891 105.285 49.6612 100.322 47.2534C94.4557 44.4069 84.4084 43.7591 77.2726 45.7674C69.393 47.9839 62.8688 51.6595 58.7988 56.1753C55.6854 59.6287 55.1325 60.9383 55.1325 64.8561C55.1325 72.594 60.0279 78.1902 71.0428 83.0458C87.4572 90.2814 104.725 86.4394 108.996 74.6022C110.194 71.2834 110.359 71.1997 115.742 71.2166C118.777 71.2256 134.013 71.8914 149.6 72.6947C165.187 73.498 181.89 74.1637 186.717 74.1727C187.535 74.1743 188.278 74.1744 188.955 74.1709C193.381 81.8937 193.368 91.3903 188.916 99.1025L153.349 160.705C148.884 168.44 140.63 173.205 131.699 173.205H60.5662C51.6346 173.205 43.3814 168.44 38.9156 160.705L18.0682 124.596C19.0441 124.482 20.0505 124.364 21.0885 124.242C35.8814 122.502 53.9341 121.201 68.5207 120.827L92.0686 120.221L94.4419 124.235C98.1273 130.47 101.413 131.28 118.658 130.2C126.763 129.692 136.549 129.145 140.405 128.983C144.74 128.8 147.582 128.178 147.855 127.352C148.19 126.34 143.743 125.944 129.474 125.717C115.804 125.501 110.528 125.053 110.205 124.083C109.868 123.07 114.312 122.675 128.583 122.448C142.253 122.232 147.529 121.784 147.852 120.814C148.189 119.801 143.745 119.406 129.474 119.18C115.604 118.959 110.531 118.523 110.197 117.519C109.845 116.464 114.068 116.157 128.938 116.157C145.136 116.157 148.132 115.905 148.132 114.549C148.132 113.204 145.054 112.89 129.391 112.642C115.587 112.422 110.531 111.985 110.197 110.981C109.845 109.926 114.068 109.619 128.938 109.619C144.706 109.619 148.132 109.346 148.132 108.086C148.132 106.924 145.687 106.401 138.035 105.926C118.11 104.688 102.801 104.259 101.192 104.893C98.4624 105.968 94.4714 110.006 93.4005 112.776L92.3896 115.389L70.8644 114.639C59.0244 114.226 38.4567 112.665 25.1571 111.167C19.7892 110.564 14.2806 109.987 9.35571 109.506L3.34937 99.1025Z" fill="url(#paint0_linear_12_106)"/>
<path d="M110.197 110.981C110.531 111.985 115.587 112.422 129.391 112.642C145.054 112.89 148.132 113.204 148.132 114.549C148.132 115.905 145.136 116.157 128.938 116.157C114.068 116.157 109.845 116.464 110.197 117.519C110.531 118.523 115.604 118.959 129.474 119.18C143.745 119.406 148.189 119.801 147.852 120.814L110.197 110.981ZM110.197 110.981C109.845 109.926 114.068 109.619 128.938 109.619C144.706 109.619 148.132 109.346 148.132 108.086C148.132 106.924 145.687 106.401 138.035 105.926C118.11 104.688 102.801 104.259 101.192 104.893L110.197 110.981ZM148.326 120.972L148.326 120.972C148.224 121.279 147.963 121.472 147.723 121.597C147.469 121.73 147.138 121.839 146.744 121.934C145.953 122.125 144.805 122.281 143.265 122.412C140.178 122.674 135.426 122.84 128.591 122.948C121.453 123.062 116.792 123.217 113.96 123.469C112.537 123.595 111.613 123.743 111.075 123.91C110.974 123.941 110.894 123.971 110.832 123.997C110.983 124.071 111.215 124.151 111.547 124.231C112.263 124.403 113.349 124.555 114.877 124.684C117.926 124.943 122.647 125.109 129.482 125.217C136.614 125.331 141.311 125.486 144.185 125.742C145.615 125.869 146.631 126.024 147.279 126.224C147.595 126.321 147.884 126.447 148.086 126.633C148.193 126.731 148.29 126.86 148.339 127.025C148.39 127.194 148.379 127.361 148.33 127.509C148.33 127.509 148.33 127.509 148.33 127.509L147.855 127.352L148.326 120.972ZM148.326 120.972C148.376 120.824 148.388 120.657 148.337 120.488C148.288 120.323 148.191 120.194 148.084 120.095C147.883 119.909 147.593 119.783 147.277 119.685C146.63 119.485 145.615 119.331 144.185 119.204C141.312 118.948 136.615 118.793 129.482 118.68C122.546 118.57 117.826 118.405 114.802 118.145C113.287 118.014 112.22 117.861 111.521 117.686C111.17 117.598 110.936 117.51 110.792 117.431C110.791 117.43 110.789 117.429 110.788 117.429C110.847 117.402 110.926 117.372 111.032 117.339C111.552 117.18 112.462 117.045 113.895 116.941C116.745 116.734 121.5 116.657 128.938 116.657C137.03 116.657 141.852 116.594 144.651 116.36C146.041 116.243 146.988 116.081 147.597 115.836C147.907 115.712 148.171 115.551 148.357 115.327C148.553 115.09 148.632 114.821 148.632 114.549C148.632 114.274 148.55 114.006 148.354 113.771C148.168 113.548 147.907 113.385 147.599 113.257C146.992 113.004 146.053 112.826 144.686 112.687C141.933 112.406 137.224 112.266 129.399 112.142C122.497 112.032 117.798 111.868 114.786 111.607C113.276 111.477 112.214 111.324 111.518 111.148C111.168 111.06 110.936 110.972 110.792 110.893C110.79 110.893 110.789 110.892 110.787 110.891C110.846 110.864 110.926 110.834 111.032 110.801C111.552 110.642 112.462 110.507 113.895 110.403C116.745 110.196 121.5 110.119 128.938 110.119C136.816 110.119 141.637 110.051 144.488 109.823C145.905 109.71 146.884 109.555 147.519 109.328C147.838 109.214 148.113 109.067 148.313 108.862C148.528 108.641 148.632 108.374 148.632 108.086C148.632 107.574 148.343 107.183 147.897 106.902C147.472 106.634 146.857 106.431 146.058 106.26C144.449 105.916 141.889 105.665 138.066 105.427C128.1 104.808 119.285 104.391 112.759 104.208C109.496 104.117 106.801 104.083 104.818 104.113C103.827 104.128 103.008 104.159 102.381 104.206C101.782 104.252 101.291 104.317 101.008 104.428C99.5492 105.003 97.8113 106.337 96.3186 107.847C94.8254 109.358 93.5055 111.118 92.9341 112.595C92.9341 112.595 92.9341 112.595 92.9341 112.595L92.0516 114.877L70.8818 114.139C59.0562 113.727 38.5014 112.166 25.213 110.671C19.9354 110.077 14.522 109.51 9.66021 109.033L3.78238 98.8525C-0.594126 91.2722 -0.594126 81.9329 3.78238 74.3525M148.326 120.972L3.78238 74.3525M3.78238 74.3525L39.3486 12.75C43.7251 5.16967 51.8132 0.5 60.5662 0.5H131.699C140.452 0.5 148.54 5.16967 152.916 12.75L178.386 56.8655M3.78238 74.3525L178.386 56.8655M178.386 56.8655C173.04 57.1504 166.149 57.5872 157.368 58.188C138.034 59.5107 119.608 60.7373 116.418 60.9124L110.986 61.2116L109.829 57.8408C109.829 57.8408 109.829 57.8407 109.829 57.8407C108.805 54.8593 107.763 52.7073 106.321 50.9917C104.875 49.2714 103.057 48.0248 100.54 46.8035C97.5301 45.343 93.4827 44.4602 89.3055 44.1909C85.1249 43.9214 80.7707 44.2635 77.1372 45.2861C69.1973 47.5196 62.579 51.2342 58.4274 55.8406C56.8682 57.5699 55.9003 58.8143 55.3375 60.147C54.7701 61.4905 54.6325 62.8795 54.6325 64.8561C54.6325 68.8449 55.8995 72.2957 58.5807 75.361C61.2492 78.4117 65.3009 81.0611 70.8411 83.5033C79.1328 87.1584 87.662 88.0261 94.6816 86.4644C101.701 84.9027 107.257 80.8948 109.466 74.7719C109.769 73.9325 109.99 73.3474 110.234 72.9168C110.466 72.5055 110.702 72.267 111.024 72.1054C111.366 71.9334 111.85 71.8264 112.621 71.7705C113.39 71.7148 114.389 71.7124 115.74 71.7166C118.76 71.7256 133.98 72.3904 149.574 73.194C165.158 73.9971 181.874 74.6637 186.716 74.6727C187.418 74.674 188.065 74.6744 188.664 74.6722C192.858 82.1942 192.798 91.3784 188.483 98.8525L152.916 160.455C148.54 168.035 140.452 172.705 131.699 172.705H60.5662C51.8132 172.705 43.7251 168.035 39.3486 160.455L18.8813 125.005C19.6193 124.918 20.3744 124.83 21.147 124.739C35.9251 123 53.9625 121.7 68.5335 121.327L91.7878 120.729L178.386 56.8655Z" stroke="#FF8300" stroke-opacity="0.48"/>
</g>
<defs>
<linearGradient id="paint0_linear_12_106" x1="96.1325" y1="0" x2="96.1325" y2="173.205" gradientUnits="userSpaceOnUse">
<stop stop-color="#FF8300"/>
<stop offset="1" stop-color="#FF8300" stop-opacity="0"/>
</linearGradient>
</defs>
</svg>
